HIERARCHY
ROOT root
{
	OFFSET	0	13.1	24.9
	CHANNELS 6  Xposition Yposition Zposition Xrotation Yrotation Zrotation
	JOINT spine_1
	{
		OFFSET	0	9.99999	0
		CHANNELS 3  Xrotation Yrotation Zrotation
		JOINT spine_2
		{
			OFFSET	0	112	-10
			CHANNELS 3  Xrotation Yrotation Zrotation
			JOINT spine_3
			{
				OFFSET	0	206.5	19.3
				CHANNELS 3  Xrotation Yrotation Zrotation
				JOINT spine_4
				{
					OFFSET	0	110.4	14.6
					CHANNELS 3  Xrotation Yrotation Zrotation
					JOINT neck_1
					{
						OFFSET	0	71.8	-50.3
						CHANNELS 3  Xrotation Yrotation Zrotation
						JOINT neck_2
						{
							OFFSET	0	86.2	-25.8
							CHANNELS 3  Xrotation Yrotation Zrotation
							JOINT head_ee
							{
								OFFSET	0	179.8	-8.7
								CHANNELS 3  Xrotation Yrotation Zrotation
								End Site
								{
									OFFSET	1	0	0
								}
							}
						}
					}
					JOINT left_clavicle
					{
						OFFSET	-43.2	22.4	-70.8
						CHANNELS 3  Xrotation Yrotation Zrotation
						JOINT left_shoulder
						{
							OFFSET	-93.9	-5.79999	48.7
							CHANNELS 3  Xrotation Yrotation Zrotation
							JOINT left_elbow
							{
								OFFSET	-291.4	-30.8	15.2
								CHANNELS 3  Xrotation Yrotation Zrotation
								JOINT left_lowarm_twist
								{
									OFFSET	-110.7	-3.89999	13.6
									CHANNELS 3  Xrotation Yrotation Zrotation
									JOINT left_hand
									{
										OFFSET	-110.7	-3.89999	13.6
										CHANNELS 3  Xrotation Yrotation Zrotation
										JOINT left_ee
										{
											OFFSET	-80.8	-5.10001	12.1
											CHANNELS 3  Xrotation Yrotation Zrotation
											End Site
											{
												OFFSET	1	0	0
											}
										}
									}
								}
							}
						}
					}
					JOINT right_clavicle
					{
						OFFSET	43.2	22.4	-70.8
						CHANNELS 3  Xrotation Yrotation Zrotation
						JOINT right_shoulder
						{
							OFFSET	93.9	-5.79999	48.7
							CHANNELS 3  Xrotation Yrotation Zrotation
							JOINT right_elbow
							{
								OFFSET	291.4	-30.8	15.2
								CHANNELS 3  Xrotation Yrotation Zrotation
								JOINT right_lowarm_twist
								{
									OFFSET	110.7	-3.89999	13.6
									CHANNELS 3  Xrotation Yrotation Zrotation
									JOINT right_hand
									{
										OFFSET	110.7	-3.89999	13.6
										CHANNELS 3  Xrotation Yrotation Zrotation
										JOINT right_ee
										{
											OFFSET	80.8	-5.10001	12.1
											CHANNELS 3  Xrotation Yrotation Zrotation
											End Site
											{
												OFFSET	1	0	0
											}
										}
									}
								}
							}
						}
					}
				}
			}
		}
	}
	JOINT left_hip
	{
		OFFSET	-82.8	-127.5	0.300001
		CHANNELS 3  Xrotation Yrotation Zrotation
		JOINT left_knee
		{
			OFFSET	-28.2	-396.7	2.2
			CHANNELS 3  Xrotation Yrotation Zrotation
			JOINT left_ankle
			{
				OFFSET	-11.7	-411.3	35.4
				CHANNELS 3  Xrotation Yrotation Zrotation
				JOINT left_toes
				{
					OFFSET	0	-60	-88.6
					CHANNELS 3  Xrotation Yrotation Zrotation
					JOINT left_foot_ee
					{
						OFFSET	-22.5	-16.5	-42.2
						CHANNELS 3  Xrotation Yrotation Zrotation
						End Site
						{
							OFFSET	1	0	0
						}
					}
				}
			}
		}
	}
	JOINT right_hip
	{
		OFFSET	82.8	-127.5	0.300001
		CHANNELS 3  Xrotation Yrotation Zrotation
		JOINT right_knee
		{
			OFFSET	28.2	-396.7	2.2
			CHANNELS 3  Xrotation Yrotation Zrotation
			JOINT right_ankle
			{
				OFFSET	11.7	-411.3	35.4
				CHANNELS 3  Xrotation Yrotation Zrotation
				JOINT right_toes
				{
					OFFSET	0	-60	-88.6
					CHANNELS 3  Xrotation Yrotation Zrotation
					JOINT right_foot_ee
					{
						OFFSET	22.5	-16.5	-42.2
						CHANNELS 3  Xrotation Yrotation Zrotation
						End Site
						{
							OFFSET	1	0	0
						}
					}
				}
			}
		}
	}
}
MOTION
Frames: 9
Frame Time: 0.02
1325.93 696.113 -1479.76 -101.654 83.5005 95.0618 2.62995 0.286493 3.56751 2.63702 0.0590504 3.57849 2.63914 -0.532622 3.53918 2.62166 0.0326375 3.57883 -6.4176 -1.00585 -7.08912 -6.26922 3.32847 -7.32886 -0.0 0.0 -0.0 0.36562 -4.90319 0.150422 15.5339 -20.4547 61.895 2.47047 -50.7389 1.17159 -29.6849 -1.92678 3.22582 -0.788677 1.98796 -4.40477 -0.0 0.0 -0.0 8.77371 -7.35856 -16.788 -30.4261 4.37137 -66.127 0.616883 16.9925 -0.0921534 -15.8824 0.821843 -1.8506 1.21622 1.39904 -7.58149 0.0 0.0 0.0 -3.65628 -4.57158 6.69832 -10.7726 0.29149 1.62511 37.8165 -31.9185 -5.83849 -32.8882 0.0 0.0 -0.0 0.0 -0.0 33.8934 13.3473 5.87527 0.527223 0.0220687 0.0778958 -10.354 -12.1496 -1.54715 -15.9828 0.0 0.0 0.0 0.0 0.0 
1308.88 700.315 -1486.77 -100.68 83.5299 94.1691 2.59876 0.414362 3.50961 2.60559 0.190339 3.52883 2.61593 -0.396098 3.51171 2.59876 0.163125 3.53019 -5.64883 -1.60595 -7.4012 -5.48855 2.54268 -7.79414 -0.0 0.0 -0.0 0.195284 -5.03995 -0.207214 13.5099 -20.1534 63.0555 2.31751 -48.9352 1.05468 -28.0785 -1.78148 3.07985 -0.631294 1.12799 -3.73022 -0.0 0.0 -0.0 9.09783 -8.09966 -17.3448 -29.378 4.31911 -65.6286 0.681202 18.6469 -0.111839 -15.927 0.824861 -1.85544 1.21078 0.873729 -7.75927 0.0 0.0 0.0 -3.79733 -6.19816 6.17449 -12.0385 0.305542 1.81884 37.7365 -31.069 -5.76672 -31.2754 0.0 0.0 -0.0 0.0 -0.0 33.1387 13.6745 5.76445 -0.620078 -0.0250352 -0.0918644 -10.4055 -11.0963 -1.55348 -15.6655 0.0 0.0 0.0 0.0 0.0 
1290.44 702.846 -1497.96 -100.862 83.6413 94.3785 2.51103 0.520679 3.53303 2.51792 0.294953 3.55896 2.53508 -0.302748 3.55831 2.51751 0.262652 3.56149 -5.07804 -1.73496 -6.24394 -4.96536 1.50304 -6.66289 -0.0 0.0 -0.0 -0.115461 -3.68118 -0.667914 11.9869 -19.8427 63.6417 2.27315 -48.3863 1.02137 -27.4863 -1.72896 3.02504 -0.497038 0.84451 -2.9571 -0.0 0.0 -0.0 9.23026 -9.80347 -17.4465 -29.2983 4.31938 -66.1186 0.764135 20.7331 -0.139786 -15.9157 0.824092 -1.85421 1.22152 -0.233516 -8.28117 0.0 0.0 0.0 -4.37539 -7.2612 5.57879 -12.7276 0.311392 1.92441 37.6506 -29.2856 -5.63308 -29.4934 0.0 0.0 -0.0 0.0 -0.0 32.8828 14.0821 4.52018 -2.64451 -0.0998149 -0.393535 -11.2491 -11.0037 -1.68109 -13.9545 0.0 0.0 0.0 0.0 0.0 
1274.98 706.172 -1505.56 -103.543 83.6977 96.6681 2.20052 0.616258 3.57508 2.20755 0.38767 3.60699 2.23145 -0.238382 3.6199 2.21332 0.335923 3.61217 -4.80916 -2.3715 -7.17143 -4.6626 1.06665 -7.72872 -0.0 0.0 -0.0 -0.84519 -3.80211 -2.13755 9.82392 -20.4956 64.8533 2.13728 -46.6287 0.921182 -26.1594 -1.61337 2.90027 -0.363364 0.546013 -2.19338 -0.0 0.0 -0.0 9.58055 -9.76189 -18.1005 -27.7073 4.77276 -67.067 0.692946 18.9456 -0.115623 -15.6563 0.806598 -1.82598 1.31567 -0.468622 -9.01181 0.0 0.0 0.0 -4.21533 -8.53785 5.38316 -13.6156 0.317056 2.06053 38.1258 -27.7055 -5.57909 -28.2056 0.0 0.0 -0.0 0.0 -0.0 32.5897 14.4174 4.08667 -3.98619 -0.143476 -0.594811 -8.86178 -9.5941 -1.31921 -14.9455 0.0 0.0 0.0 0.0 0.0 
1256.92 710.868 -1517.28 -106.144 83.3031 99.4624 2.23479 0.727209 3.60781 2.2419 0.496318 3.6467 2.27299 -0.1353 3.67779 2.2544 0.446841 3.65309 -2.93588 -2.16779 -6.47172 -2.81568 1.12218 -7.05244 -0.0 0.0 -0.0 -0.626571 -1.52091 -1.40667 7.79038 -19.2976 64.5265 1.98339 -44.4897 0.811285 -25.5815 -1.56394 2.84511 -0.199567 0.499181 -1.12066 -0.0 0.0 -0.0 10.1482 -10.8323 -19.0387 -26.3955 5.05641 -67.4754 0.638041 17.5401 -0.0984336 -15.699 0.809475 -1.83064 1.22198 -1.19399 -8.67099 0.0 0.0 0.0 -4.82092 -9.11094 4.61396 -13.9621 0.318694 2.11368 37.5725 -27.518 -5.5119 -27.3234 0.0 0.0 -0.0 0.0 -0.0 32.4144 14.4665 3.84061 -6.13042 -0.203427 -0.9184 -7.46417 -8.94767 -1.10866 -13.8321 0.0 0.0 0.0 0.0 0.0 
1241.94 715.431 -1525.72 -114.971 83.3024 108.189 2.06313 0.834976 3.6705 2.07042 0.599886 3.71611 2.10927 -0.0557034 3.76374 2.08991 0.538988 3.72542 -3.0581 -2.32721 -5.9796 -2.95757 0.433863 -6.55712 -0.0 0.0 -0.0 -1.01647 -1.35084 -2.14733 4.89628 -19.5877 64.4366 1.78528 -41.485 0.676162 -25.0619 -1.51998 2.79509 0.0867501 0.457779 0.771427 -0.0 0.0 -0.0 10.5491 -10.3951 -19.8412 -24.0884 5.04351 -67.6849 0.751818 20.4267 -0.135456 -14.7907 0.749166 -1.73124 1.37782 -1.88017 -9.99582 0.0 0.0 0.0 -4.37059 -9.67174 3.84487 -15.4716 0.322079 2.34525 37.9107 -25.1946 -5.41083 -26.6721 0.0 0.0 -0.0 0.0 -0.0 31.1141 14.5696 3.47874 -6.18998 -0.204919 -0.927418 -9.65129 -8.3826 -1.43819 -13.0102 0.0 0.0 0.0 0.0 0.0 
1224.81 717.564 -1527.64 -121.218 83.8239 114.122 1.86874 0.873101 3.68982 1.87609 0.636708 3.73781 1.91803 -0.0358135 3.7914 1.89841 0.562989 3.7496 -3.27487 -1.80015 -6.77582 -3.13959 1.98992 -7.30117 -0.0 0.0 -0.0 -1.45943 0.989029 -2.67603 2.42067 -23.2716 64.7111 1.72253 -40.4703 0.635008 -24.7157 -1.49094 2.76154 0.941784 1.61002 6.95574 -0.0 0.0 -0.0 10.4911 -9.49454 -19.8412 -23.9129 4.87171 -68.3991 0.750626 20.397 -0.135041 -14.3486 0.720382 -1.68251 1.47282 -1.03858 -10.3035 0.0 0.0 0.0 -2.5837 -5.62016 4.80799 -19.8076 0.297879 3.00992 38.0612 -21.3401 -5.23308 -27.3593 0.0 0.0 -0.0 0.0 -0.0 29.748 13.4783 3.48925 -10.332 -0.285595 -1.55777 2.56916 -17.6247 0.378554 -10.2847 0.0 0.0 0.0 0.0 0.0 
1205.35 719.388 -1533.8 -124.577 84.8898 116.647 1.74221 0.962882 3.80601 1.74998 0.718931 3.85945 1.79919 0.0155672 3.92571 1.77825 0.634893 3.87414 -3.47472 -2.23193 -7.92825 -3.2911 2.07732 -8.55215 -0.0 0.0 -0.0 -1.67297 2.98524 -2.78504 0.864346 -22.3988 64.7561 1.63131 -38.9388 0.576733 -24.2934 -1.45579 2.72039 1.49686 2.11427 10.8931 -0.0 0.0 -0.0 10.6335 -10.5143 -19.9847 -21.7952 5.14302 -68.9031 0.752774 20.4506 -0.13579 -14.4532 0.727161 -1.69406 1.5188 -1.52544 -10.8088 0.0 0.0 0.0 -1.28394 -6.51428 4.87016 -26.6785 0.156889 4.05424 37.821 -21.0755 -5.19819 -26.6995 0.0 0.0 -0.0 0.0 -0.0 27.9406 14.4832 3.438 -13.0105 -0.313425 -1.96777 5.44569 -19.2598 0.80041 -8.29058 0.0 0.0 0.0 0.0 0.0 
1186.0 717.721 -1542.69 -128.001 85.3821 119.412 1.64594 1.02612 3.88584 1.65401 0.77697 3.94313 1.70857 0.0514359 4.0185 1.6867 0.684934 3.96013 -4.01811 -0.290213 -6.26471 -3.89175 4.27076 -6.50259 -0.0 0.0 -0.0 -2.29225 4.68638 -3.67241 -1.15681 -24.7193 64.6596 1.48842 -36.3998 0.489391 -22.5924 -1.31734 2.55207 1.9698 5.5569 15.4284 -0.0 0.0 -0.0 10.8659 -10.2166 -20.4622 -18.6541 6.70216 -69.8189 0.533733 14.81 -0.0693678 -13.0307 0.636846 -1.536 1.39492 -2.3818 -10.3098 0.0 0.0 0.0 0.758 -8.21804 4.92169 -31.0752 0.00138279 4.71093 37.4459 -16.0723 -4.96806 -27.1948 0.0 0.0 -0.0 0.0 -0.0 25.2808 14.6076 3.44648 -11.8792 -0.304009 -1.79445 13.1995 -21.5935 1.91052 -8.26068 0.0 0.0 0.0 0.0 0.0 
